<?xml version="1.0" encoding="UTF-8" standalone="no"?>
<!-- Created with Inkscape (http://www.inkscape.org/) -->
<!-- style="fill:#000000" -->
<svg
   version="1.1"
   id="svg1"
   width="2848"
   height="1504"
   viewBox="0 0 2848 1504"
   xmlns="http://www.w3.org/2000/svg"
   xmlns:svg="http://www.w3.org/2000/svg">
  <defs
     id="defs1" />
  <g
     id="g1">
    <path
       d="M 5.6883907e-6,759.45475 V 7.4547457 H 1424 2848 V 759.45475 1511.4548 H 1424 5.6883907e-6 Z M 1608.5768,1418.9252 c 1.0434,-2.4973 1.349,-6.1083 1.0661,-12.6003 -0.2732,-6.2722 -0.8231,-9.37 -1.7697,-9.9696 -0.7552,-0.4785 -13.5232,-0.9021 -28.3732,-0.9414 -14.85,-0.039 -37.9514,-0.085 -51.3364,-0.1017 -22.3103,-0.028 -24.4901,-0.184 -26.1839,-1.8777 -1.6574,-1.6574 -1.8089,-3.2586 -1.472,-15.5553 0.2065,-7.5392 0.7645,-14.0966 1.24,-14.5721 0.4754,-0.4754 14.1142,-1.1423 30.3084,-1.482 16.1941,-0.3396 30.2314,-1.0277 31.1939,-1.5291 1.4864,-0.7743 1.75,-2.3942 1.75,-10.754 0,-6.7023 -0.3988,-10.1444 -1.25,-10.789 -0.7317,-0.5542 -13.0668,-0.8731 -29.75,-0.7692 -27.7165,0.1727 -28.5614,0.1198 -30.7327,-1.9257 -2.0613,-1.9418 -2.2341,-3.0028 -2.25,-13.8181 -0.016,-10.5686 0.172,-11.8161 1.917,-12.75 1.2584,-0.6735 19.186,-1.0352 51.3088,-1.0352 41.0692,0 49.7012,-0.2388 51.3158,-1.4197 1.7182,-1.2567 1.9108,-2.4909 1.6768,-10.75 -0.1453,-5.1317 -0.5099,-10.1074 -0.81,-11.0572 -0.5094,-1.6117 -4.8554,-1.7295 -65.2357,-1.7679 -35.5795,-0.023 -65.6158,-0.2879 -66.7474,-0.5895 -1.2393,-0.3303 -3.0286,0.2381 -4.5,1.4294 -2.4426,1.9776 -2.4426,1.9776 -2.7845,68.3281 -0.3269,63.4456 -0.2611,66.4235 1.5018,68.019 1.0141,0.9177 3.8679,1.8124 6.3419,1.9881 2.474,0.1758 33.2114,0.2006 68.3053,0.055 63.8071,-0.2646 63.8071,-0.2646 65.2697,-3.765 z M 1772,1420.7401 c 1.925,-0.5324 4.85,-1.6691 6.5,-2.526 1.65,-0.8569 4.1842,-2.6574 5.6316,-4.0012 1.4474,-1.3437 3.7875,-4.2015 5.2002,-6.3506 1.5232,-2.3172 2.9928,-6.553 3.6108,-10.4075 0.5733,-3.575 1.0368,-11.675 1.03,-18 -0.01,-6.325 -0.4375,-14.425 -0.9572,-18 -0.5198,-3.575 -1.8223,-8.3 -2.8945,-10.5 -1.0723,-2.2 -3.2256,-5.1763 -4.7853,-6.614 -1.5596,-1.4376 -4.3653,-3.1251 -6.2348,-3.75 -1.8696,-0.6248 -4.5696,-1.1428 -6,-1.1511 -1.4305,-0.01 -4.4008,-0.6638 -6.6008,-1.4568 -3.2449,-1.1695 -12.0747,-1.4454 -46.7715,-1.4612 -28.1497,-0.013 -43.4479,-0.3816 -44.75,-1.0785 -1.7999,-0.9632 -1.9771,-2.1161 -1.9632,-12.7736 0.01,-6.4432 0.428,-12.3671 0.9324,-13.1644 0.7818,-1.2359 7.0819,-1.4078 42.7347,-1.1663 36.3386,0.2461 42.0469,0.4891 43.5676,1.8546 1.1529,1.0351 1.75,3.0417 1.75,5.8811 0,3.2375 0.4812,4.5674 1.9343,5.345 1.0638,0.5693 3.1726,1.0352 4.6862,1.0352 1.5135,0 6.1556,-0.9228 10.3157,-2.0506 4.1601,-1.1277 8.6293,-2.5822 9.9316,-3.232 2.1794,-1.0875 2.3231,-1.6207 1.8051,-6.6995 -0.3095,-3.0349 -1.0523,-7.1823 -1.6507,-9.2165 -0.5983,-2.0343 -3.0638,-6.1244 -5.479,-9.0892 -3.6265,-4.452 -5.4055,-5.7233 -10.2171,-7.3014 -5.4271,-1.78 -9.3189,-1.9108 -56.8261,-1.9108 -46.3642,0 -51.3507,0.1585 -54.858,1.7441 -2.1218,0.9592 -5.9731,3.2967 -8.5584,5.1945 -3.0847,2.2644 -5.6487,5.3247 -7.4593,8.9032 -2.6972,5.331 -2.7629,5.875 -2.9415,24.3722 -0.1828,18.9196 -0.1828,18.9196 2.7186,24.2662 1.5957,2.9407 4.4664,6.7356 6.3792,8.4332 1.9128,1.6976 4.4843,3.6318 5.7145,4.2982 1.2302,0.6665 3.9845,1.5246 6.1208,1.907 2.1362,0.3825 24.5841,0.8632 49.8841,1.0684 46,0.373 46,0.373 47.7278,2.593 1.4082,1.8094 1.7318,4.38 1.75,13.8985 0.018,9.305 -0.2972,11.998 -1.5492,13.25 -1.359,1.359 -6.1248,1.5955 -35.25,1.7488 -18.5232,0.098 -38.5525,0.2101 -44.5095,0.25 -9.6159,0.064 -10.99,-0.1451 -12.25,-1.8685 -0.7805,-1.0676 -1.426,-3.5426 -1.4344,-5.5 -0.01,-1.9573 -0.4257,-4.2074 -0.9273,-5.0001 -0.7729,-1.2216 -2.3761,-1.27 -10.5159,-0.3175 -5.2822,0.6182 -11.2772,1.9418 -13.3222,2.9413 -3.1088,1.5196 -3.8208,2.4655 -4.3445,5.7716 -0.3801,2.3996 0.036,6.7327 1.0575,11.0216 0.9763,4.098 2.6915,8.2265 4.082,9.8257 1.319,1.5169 4.3163,3.8302 6.6606,5.1405 2.3444,1.3103 5.9213,2.9297 7.9485,3.5988 2.0273,0.6691 9.1289,1.4961 15.7813,1.8379 6.6524,0.3417 30.5453,0.3409 53.0953,0 22.55,-0.3429 42.575,-1.059 44.5,-1.5914 z m 648.2084,-0.038 c 0.9573,-1.1549 1.3673,-7.7939 1.5843,-25.6526 0.1609,-13.252 0.3205,-28.8195 0.3545,-34.5945 0.034,-5.775 -0.092,-14.325 -0.2809,-19 -0.3267,-8.1017 -0.2404,-8.5147 1.8427,-8.8127 1.609,-0.2301 5.4684,2.6716 14.63,11 6.8445,6.222 18.6236,16.4877 26.1757,22.8127 7.5521,6.325 14.6192,11.989 15.7047,12.5868 1.0854,0.5977 5.093,3.9727 8.9057,7.5 3.8127,3.5272 9.1974,8.5066 11.966,11.0651 2.7686,2.5586 7.7925,6.6086 11.1643,9 3.3718,2.3915 7.7312,5.8676 9.6876,7.7249 1.9563,1.8573 5.132,4.4222 7.057,5.6998 2.6198,1.7388 5.4618,2.4634 11.3006,2.8813 5.0281,0.3599 8.5822,0.1468 10,-0.5995 1.2096,-0.6368 2.4467,-1.5336 2.7489,-1.9928 0.3022,-0.4592 0.5212,-30.7262 0.4866,-67.2601 -0.06,-62.8416 -0.1614,-66.534 -1.8874,-68.4412 -1.6844,-1.8612 -2.6815,-1.9741 -12.9866,-1.4697 -6.1484,0.301 -11.6986,1.0537 -12.3566,1.6759 -0.8644,0.8174 -1.3799,12.1805 -1.8659,41.1295 -0.3693,22 -0.7691,41.125 -0.8884,42.5 -0.1193,1.375 -0.7422,2.455 -1.3841,2.4 -0.6419,-0.055 -1.7699,-0.1675 -2.5067,-0.25 -0.7368,-0.082 -3.0993,-1.6925 -5.25,-3.5778 -2.1507,-1.8852 -5.7374,-4.9227 -7.9703,-6.75 -2.233,-1.8272 -5.7712,-4.6722 -7.8628,-6.3222 -2.0916,-1.65 -4.7445,-3.8079 -5.8953,-4.7953 -1.1509,-0.9874 -4.8126,-4.2973 -8.1372,-7.3552 -3.3247,-3.0579 -7.1698,-6.5424 -8.5448,-7.7434 -1.375,-1.2009 -5.425,-4.4129 -9,-7.1377 -3.575,-2.7247 -8.8749,-7.073 -11.7775,-9.6627 -2.9026,-2.5898 -7.0651,-5.7133 -9.25,-6.9413 -2.1849,-1.228 -3.9725,-2.5917 -3.9725,-3.0304 0,-0.4387 -1.4625,-2.2879 -3.25,-4.1093 -1.7875,-1.8214 -4.2296,-3.9865 -5.427,-4.8112 -1.1973,-0.8247 -5.1022,-4.2246 -8.6776,-7.5552 -3.5754,-3.3307 -7.7708,-6.5584 -9.3231,-7.1726 -1.5523,-0.6143 -6.5288,-1.0969 -11.059,-1.0724 -6.2264,0.034 -8.7512,0.4612 -10.3448,1.7516 -2.0981,1.6989 -2.1099,2.0194 -2.4892,67.1711 -0.297,51.02 -0.1051,66.0156 0.8697,67.964 1.1517,2.3018 1.9226,2.5396 9.7259,3 4.6613,0.275 10.3689,0.3436 12.6835,0.1526 2.3146,-0.1911 4.7896,-1.0485 5.5,-1.9055 z m -1396.2522,-0.011 c 2.1778,-1.7634 2.1778,-1.7634 2.1362,-81.5544 -0.023,-43.885 -0.287,-80.188 -0.5869,-80.6732 -0.2999,-0.4853 -1.803,-1.5097 -3.3403,-2.2766 -1.8114,-0.9037 -6.9389,-1.4772 -14.5714,-1.6297 -10.87611,-0.2173 -12.03649,-0.058 -15.17827,2.081 -3.40186,2.3164 -3.40186,2.3164 -3.46917,55.8164 -0.037,29.425 -0.15259,65.3518 -0.25683,79.8375 -0.18953,26.3375 -0.18953,26.3375 2.17125,28.25 2.07849,1.6838 4.06816,1.9125 16.63922,1.9125 12.15,0 14.6031,-0.2629 16.4562,-1.7635 z m 86.0661,-0.2782 c 0.7454,-1.3928 1.0663,-15.6931 1.0097,-45 -0.075,-38.6481 0.077,-42.9583 1.5082,-42.9583 0.8752,0 2.5742,0.5203 3.7755,1.1562 1.2014,0.6359 5.2458,3.9824 8.9875,7.4366 3.7418,3.4542 10.6866,9.3464 15.4329,13.0938 4.7463,3.7473 11.1348,9.0887 14.1967,11.8697 3.062,2.781 8.2672,7.267 11.5672,9.9688 3.3,2.7018 8.3158,6.9514 11.1462,9.4436 2.8305,2.4922 6.6555,5.8176 8.5,7.3898 1.8446,1.5721 5.1933,4.4971 7.4417,6.5 2.2483,2.0028 5.5837,4.7665 7.4121,6.1415 1.8284,1.375 5.1638,4.0982 7.4121,6.0517 2.2484,1.9534 6.0786,5.0907 8.5116,6.9716 4.2305,3.2705 4.8557,3.4373 14.3093,3.817 9.273,0.3724 10.04,0.2518 12.3808,-1.9472 2.4953,-2.3443 2.4953,-2.3443 2.0848,-67.6969 -0.4051,-64.4941 -0.4377,-65.3797 -2.4817,-67.4238 -1.8848,-1.8848 -3.1355,-2.0551 -13.8941,-1.8921 -9.7105,0.1471 -12.0461,0.476 -13.0728,1.8405 -0.9535,1.2673 -1.25,11.5596 -1.25,43.3885 0,22.9499 -0.2566,42.3958 -0.5702,43.2131 -0.4601,1.1989 -0.9952,1.263 -2.7692,0.3318 -1.2094,-0.6348 -4.0077,-2.9542 -6.2185,-5.1542 -2.2107,-2.2 -8.4494,-7.6 -13.8637,-12 -5.4143,-4.4 -11.9219,-9.8273 -14.4613,-12.0606 -2.5394,-2.2333 -6.8671,-5.8103 -9.6171,-7.9489 -2.75,-2.1385 -5.45,-4.3962 -6,-5.017 -0.55,-0.6209 -3.25,-2.8345 -6,-4.9191 -2.75,-2.0846 -6.8,-5.3317 -9,-7.2157 -2.2,-1.884 -7.2866,-6.2185 -11.3036,-9.6321 -4.017,-3.4137 -9.417,-7.9403 -12,-10.0593 -2.583,-2.119 -6.4964,-5.5004 -8.6964,-7.5142 -2.2,-2.0139 -5.2911,-4.4882 -6.8692,-5.4985 -2.3066,-1.4768 -4.9211,-1.8426 -13.3343,-1.8657 -8.4573,-0.023 -10.7847,0.2906 -12.1308,1.6365 -1.5163,1.5159 -1.6849,7.6024 -1.8802,67.8404 -0.1938,59.7798 -0.058,66.348 1.405,67.9646 1.3954,1.542 3.3916,1.7896 14.4293,1.7896 11.8735,0 12.8897,-0.1493 13.9025,-2.0417 z m 262.0817,-0.2489 c 1.3178,-1.2598 3.521,-4.2129 4.896,-6.5626 1.375,-2.3496 3.4674,-5.7724 4.6499,-7.6063 1.1824,-1.8338 2.4808,-4.3932 2.8853,-5.6874 0.4045,-1.2942 2.8199,-5.9531 5.3674,-10.3531 2.5476,-4.4 5.3866,-9.35 6.3089,-11 0.9223,-1.65 3.4667,-6.6642 5.6543,-11.1425 2.1875,-4.4784 4.466,-8.4445 5.0632,-8.8136 0.5971,-0.3691 1.8997,-2.33 2.8945,-4.3575 0.9948,-2.0275 4.2022,-8.1864 7.1277,-13.6864 2.9254,-5.5 6.779,-12.25 8.5636,-15 1.7845,-2.75 5.3584,-9.05 7.942,-14 2.5836,-4.95 5.2604,-9.675 5.9485,-10.5 0.6881,-0.825 2.2866,-3.3 3.5521,-5.5 1.2655,-2.2 2.6779,-5.295 3.1386,-6.8778 0.5004,-1.7191 0.4343,-3.6314 -0.1644,-4.75 -0.8966,-1.6753 -2.3078,-1.8722 -13.4197,-1.8722 -6.8298,0 -13.4515,0.4845 -14.7148,1.0767 -1.2634,0.5922 -3.5346,2.8482 -5.0471,5.0133 -1.5125,2.1652 -2.75,4.32 -2.75,4.7885 0,0.4684 -0.9716,2.087 -2.1592,3.5967 -1.1875,1.5097 -4.3076,6.9137 -6.9336,12.0087 -2.6259,5.0951 -6.53,12.133 -8.6757,15.6399 -2.1458,3.5069 -5.6254,9.7512 -7.7325,13.8762 -2.1071,4.125 -5.2972,10.2 -7.0892,13.5 -1.792,3.3 -4.7043,8.925 -6.4718,12.5 -1.7675,3.575 -3.6027,7.175 -4.0782,8 -0.4755,0.825 -1.2857,2.4688 -1.8005,3.6528 -0.5148,1.1841 -1.442,2.4657 -2.0606,2.848 -0.6186,0.3823 -1.9144,-0.02 -2.8795,-0.893 -0.9651,-0.8734 -2.7534,-3.505 -3.9739,-5.8479 -1.2205,-2.343 -3.44,-6.3605 -4.9322,-8.9279 -1.4922,-2.5674 -5.2761,-8.9133 -8.4087,-14.102 -3.1325,-5.1886 -6.4927,-11.188 -7.4671,-13.332 -0.9743,-2.1439 -2.5372,-5.041 -3.4729,-6.438 -0.9358,-1.397 -3.1424,-5.222 -4.9035,-8.5 -1.7612,-3.278 -4.4978,-7.6211 -6.0815,-9.6514 -1.5837,-2.0302 -2.8824,-4.2802 -2.886,-5 0,-0.7197 -0.9238,-2.6586 -2.0448,-4.3086 -1.1211,-1.65 -3.8369,-6.0357 -6.0351,-9.7459 -2.301,-3.8835 -5.1963,-7.3661 -6.8236,-8.2076 -2.0381,-1.054 -6.2429,-1.4545 -15.0734,-1.4356 -6.7358,0.014 -13.32,0.4342 -14.6317,0.9329 -1.5222,0.5787 -2.3848,1.7077 -2.3848,3.1213 0,1.2181 1.8719,5.3917 4.1598,9.2748 2.2879,3.883 4.8676,8.1851 5.7327,9.5601 0.8651,1.375 2.076,3.4 2.6909,4.5 0.6149,1.1 3.2609,6.05 5.8798,11 2.619,4.95 6.5112,11.6387 8.6493,14.8639 2.1381,3.2252 3.8875,6.0218 3.8875,6.2148 0,0.1929 2.6781,4.8097 5.9513,10.2595 3.2733,5.4498 8.7405,15.0192 12.1494,21.2653 3.4089,6.2461 7.8847,13.8406 9.9463,16.8765 2.0617,3.036 4.461,7.2422 5.3319,9.3471 0.8709,2.1049 2.8982,5.7751 4.5051,8.1561 1.6069,2.381 3.1951,5.1907 3.5294,6.2439 0.3342,1.0531 2.0064,3.3454 3.7158,5.0938 3.0714,3.1415 3.223,3.1791 12.8434,3.1791 8.783,0 9.9698,-0.2241 12.1314,-2.2906 z m 533.2421,0.8283 c 1.7565,-1.3309 1.841,-3.985 1.7422,-54.7182 -0.057,-29.3257 0.2372,-53.8147 0.654,-54.4198 0.4167,-0.6052 1.7406,-1.6177 2.942,-2.25 1.4836,-0.781 10.5376,-1.1497 28.2269,-1.1497 26.0427,0 26.0427,0 27.6151,-2.3998 1.2197,-1.8616 1.4905,-4.4445 1.2071,-11.516 -0.2074,-5.175 -0.8745,-9.6253 -1.5431,-10.2939 -0.8858,-0.8858 -19.4633,-1.1322 -74.934,-0.994 -40.566,0.1011 -74.3015,0.1883 -74.9678,0.1938 -0.6663,0.01 -1.615,1.6974 -2.1083,3.7599 -0.4933,2.0625 -0.9836,6.7645 -1.0896,10.449 -0.1604,5.5802 0.15,7.0416 1.8584,8.75 1.9643,1.9643 3.1658,2.051 28.4286,2.051 23.3095,0 26.5371,0.1922 27.75,1.6527 1.1108,1.3376 1.4677,11.7734 1.8724,54.75 0.4217,44.7815 0.7334,53.4497 1.9905,55.3473 1.4254,2.1516 2.0812,2.2486 15,2.2182 9.9869,-0.024 13.9909,-0.3965 15.3556,-1.4305 z m 117.0825,-0.1092 c 0.8643,-0.8642 1.6131,-2.3267 1.664,-3.25 0.051,-0.9232 0.1635,-19.6404 0.25,-41.5939 0.1155,-29.2804 0.4666,-40.0188 1.318,-40.3035 0.6383,-0.2135 1.6587,0.1984 2.2676,0.9153 0.6089,0.717 2.5616,3.2607 4.3394,5.6527 1.7778,2.392 4.9093,6.667 6.9588,9.5 2.0496,2.833 5.1042,6.9509 6.7882,9.1509 1.684,2.2 5.4071,7.08 8.2736,10.8445 2.8665,3.7645 6.3368,8.4997 7.7118,10.5226 1.375,2.023 3.93,5.2429 5.6779,7.1555 1.7478,1.9125 5.3546,6.4024 8.0151,9.9774 3.3862,4.55 5.5901,6.5884 7.3467,6.7946 1.9567,0.2298 3.1648,-0.6121 5.4849,-3.8226 1.6365,-2.2645 4.9365,-6.4471 7.3334,-9.2947 2.3969,-2.8475 5.5469,-7.0315 7,-9.2977 1.4531,-2.2662 4.75,-6.5412 7.3264,-9.5 2.5765,-2.9588 7.5265,-9.1143 11,-13.6788 3.4736,-4.5646 7.5661,-9.9646 9.0946,-12 1.5284,-2.0355 3.8742,-5.0508 5.2128,-6.7008 1.3387,-1.65 3.502,-4.3096 4.8073,-5.9103 1.3852,-1.6986 2.8578,-2.6108 3.5371,-2.191 0.8553,0.5286 1.1638,11.8842 1.1638,42.8315 0,37.7826 0.1702,42.3003 1.655,43.941 1.4327,1.5832 3.3096,1.8288 13.9769,1.8288 11.947,0 12.3705,-0.074 13.915,-2.4312 1.4285,-2.1802 1.5462,-9.2525 1.1407,-68.5057 -0.346,-50.5564 -0.7435,-66.4256 -1.6924,-67.5689 -0.9582,-1.1546 -3.6621,-1.4942 -11.8951,-1.4942 -7.491,0 -11.2408,0.4132 -12.6276,1.3916 -1.0849,0.7655 -4.8975,5.084 -8.4725,9.5968 -3.575,4.5129 -8.75,10.9858 -11.5,14.3844 -2.75,3.3986 -5.5569,6.8426 -6.2375,7.6532 -0.6806,0.8107 -2.8101,3.499 -4.7322,5.974 -1.9221,2.475 -6.3969,8.325 -9.9438,13 -3.547,4.675 -7.2675,9.3954 -8.2678,10.4897 -1.0003,1.0944 -3.5575,4.2444 -5.6826,7 -2.1252,2.7557 -5.0502,6.0205 -6.5,7.2553 -1.4499,1.2348 -3.3869,2.2473 -4.3045,2.25 -0.9177,0 -2.6289,-1.5491 -3.8028,-3.4484 -1.1739,-1.8994 -5.2313,-7.4119 -9.0165,-12.25 -3.7852,-4.8382 -8.0365,-10.1399 -9.4473,-11.7817 -1.4107,-1.6418 -2.565,-3.4759 -2.565,-4.0757 0,-0.5998 -1.1788,-2.1815 -2.6196,-3.5149 -1.4409,-1.3334 -3.6529,-3.9993 -4.9158,-5.9243 -1.2628,-1.925 -4.3792,-5.75 -6.9252,-8.5 -2.5461,-2.75 -5.4963,-6.6446 -6.556,-8.6547 -1.0598,-2.0101 -3.852,-5.832 -6.2051,-8.4932 -2.3531,-2.6611 -5.8795,-6.4956 -7.8365,-8.5211 -3.5582,-3.6828 -3.5582,-3.6828 -14.1509,-3.7474 -8.9052,-0.054 -10.9592,0.232 -12.8932,1.7981 -2.3004,1.8628 -2.3004,1.8628 -2.3491,68.5683 -0.047,64.9055 0,66.7438 1.8925,68.1277 1.406,1.0302 5.0393,1.4223 13.1786,1.4223 8.8825,0 11.5668,-0.3293 12.8089,-1.5715 z m 336,0 c 1.2346,-1.2346 1.5714,-3.8871 1.5714,-12.3775 0,-8.3898 -0.3357,-11.0848 -1.5014,-12.0522 -1.1554,-0.9589 -13.3413,-1.2466 -52.8954,-1.2488 -28.2668,0 -52.0037,-0.3782 -52.7487,-0.8371 -0.9906,-0.6102 -1.4888,-4.526 -1.8545,-14.5765 -0.4106,-11.285 -0.2309,-14.0737 1.0051,-15.596 1.4019,-1.7266 3.3765,-1.8482 28.8129,-1.7737 26.1703,0.077 27.4301,-0.01 30.2449,-2.0115 2.8466,-2.027 2.9371,-2.3478 2.9371,-10.4125 0,-6.44 -0.3956,-8.8067 -1.75,-10.469 -1.7135,-2.1031 -2.3252,-2.1478 -29.3488,-2.1456 -25.3686,0 -27.7576,-0.1457 -29.564,-1.8286 -1.7293,-1.6111 -1.9492,-3.0779 -1.8313,-12.2152 0.074,-5.7114 0.4721,-11.4024 0.8854,-12.6468 0.7514,-2.2624 0.7514,-2.2624 52.2582,-2.1924 38.1948,0.052 51.8744,-0.235 52.9287,-1.11 1.0494,-0.871 1.4218,-3.7088 1.4218,-10.8351 0,-6.6042 -0.4372,-10.2783 -1.3836,-11.6275 -1.3542,-1.9306 -2.8354,-1.9725 -69.7188,-1.9725 -68.3351,0 -68.3351,0 -69.6016,2.5 -0.9829,1.9402 -1.2698,17.0606 -1.2813,67.5275 -0.013,57.2523 0.1714,65.2932 1.542,67.25 1.5567,2.2225 1.5567,2.2225 69.9286,2.2225 60.8229,0 68.5453,-0.1735 69.9433,-1.5715 z m 313.3319,0.7406 c 0.9735,-0.618 1.3761,-11.7131 1.7682,-48.7346 0.2792,-26.364 0.4834,-50.9036 0.4538,-54.5325 -0.041,-5.0203 0.3501,-6.9332 1.6355,-8 1.3568,-1.1261 7.2539,-1.4153 29.9632,-1.4695 21.7042,-0.052 28.6393,-0.3707 29.8464,-1.3724 1.2428,-1.0315 1.5724,-3.4545 1.5724,-11.5601 0,-7.1731 -0.3891,-10.5781 -1.2947,-11.3297 -0.8864,-0.7356 -25.012,-1.2222 -76.4991,-1.5428 -75.2043,-0.4684 -75.2043,-0.4684 -76.7052,1.6746 -1.083,1.5462 -1.501,4.8314 -1.501,11.7979 0,6.696 0.3979,9.9853 1.2984,10.7327 0.842,0.6988 11.37,1.1812 29.9515,1.3724 21.8606,0.225 28.9609,0.6031 29.9516,1.595 1.0375,1.0389 1.2422,11.291 1.0185,51 -0.154,27.3349 -0.52,50.9045 -0.8134,52.3769 -0.3006,1.5084 0.1603,4.0185 1.0557,5.75 1.5891,3.073 1.5891,3.073 14.3134,3.0577 6.9984,-0.01 13.2915,-0.3754 13.9848,-0.8156 z m -1869.76698,-30.144 c 1.31432,-0.8309 1.52983,-23.5457 1.79603,-189.3022 0.17948,-111.7535 -0.0703,-190.0175 -0.61426,-192.4383 -0.50422,-2.2441 -2.38315,-5.9049 -4.17541,-8.1352 -1.79225,-2.23015 -5.07428,-5.25645 -7.2934,-6.72495 -2.21912,-1.4686 -7.72168,-6.1429 -12.22791,-10.3875 -4.50623,-4.2446 -9.92694,-9.0269 -12.04602,-10.6272 -2.11908,-1.6004 -6.776,-5.7214 -10.34871,-9.1578 -3.57272,-3.4364 -7.19064,-6.495 -8.03984,-6.7969 -0.8492,-0.3019 -2.97436,-2.3376 -4.72257,-4.5238 -1.74822,-2.1862 -5.40037,-5.6525 -8.11591,-7.7031 -2.71553,-2.0505 -8.45022,-6.8782 -12.74374,-10.7282 -4.29353,-3.85 -8.74137,-7.9409 -9.8841,-9.091 -1.14272,-1.15 -6.12768,-5.57 -11.07768,-9.8221 -4.95,-4.2521 -9.9,-8.7266 -11,-9.9433 -1.1,-1.2166 -4.25,-3.9739 -7,-6.1272 -2.75,-2.1534 -8.825,-7.3653 -13.5,-11.5821 -4.675,-4.2168 -9.79212,-8.7396 -11.37139,-10.0506 -1.57926,-1.311 -5.92118,-5.227 -9.6487,-8.7023 -3.72753,-3.4752 -8.28541,-7.4203 -10.12862,-8.7669 -1.84321,-1.3466 -5.56598,-4.5189 -8.27283,-7.0494 -2.70684,-2.5306 -6.54875,-5.7855 -8.53758,-7.2331 -1.98882,-1.4476 -5.36531,-4.5736 -7.50331,-6.9467 -2.138,-2.3731 -5.04609,-4.9223 -6.46242,-5.6648 -1.41633,-0.7426 -5.58629,-4.2009 -9.26657,-7.6853 -3.68028,-3.4843 -9.92742,-9.2602 -13.88254,-12.8352 -3.95512,-3.575 -7.69398,-6.6642 -8.30858,-6.865 -0.6146,-0.2008 -1.56746,-0.88 -2.11746,-1.5093 -0.55,-0.6293 -6.625,-6.0688 -13.5,-12.0877 -6.875,-6.0189 -12.725,-11.1905 -13,-11.4924 -0.275,-0.3019 -2.3,-2.0587 -4.5,-3.9038 -2.2,-1.8452 -6.475,-5.4444 -9.5,-7.9983 -3.025,-2.5539 -9.1,-8.0644 -13.5,-12.2455 -4.4,-4.1811 -9.37799,-8.3907 -11.06221,-9.3546 -1.68422,-0.964 -3.87304,-2.9592 -4.86406,-4.4337 -0.99102,-1.4745 -5.36674,-5.3649 -9.72382,-8.6453 -4.53543,-3.4147 -8.17129,-6.9447 -8.5052,-8.2576 -0.48752,-1.9169 1.11839,-3.9388 9.78603,-12.3206 5.70309,-5.515 11.90967,-11.2331 13.7924,-12.7067 1.88273,-1.4737 6.89049,-6.0545 11.12835,-10.1795 4.23787,-4.125 10.90697,-10.425 14.82025,-14 3.91327,-3.575 14.08838,-13.2295 22.61137,-21.4545 8.52298,-8.2249 16.21601,-15.3572 17.09561,-15.8495 0.8796,-0.4922 5.0552,-4.3377 9.27911,-8.5455 4.22391,-4.2077 11.49637,-10.9827 16.16101,-15.0555 4.66464,-4.0727 12.60414,-11.2727 17.64334,-16 5.0392,-4.7272 11.97895,-11.07 15.42167,-14.095 3.44272,-3.025 10.11973,-9.138 14.83782,-13.5844 4.71808,-4.4464 11.50333,-10.7281 15.07833,-13.9594 3.575,-3.2312 7.02689,-6.3432 7.67087,-6.9156 0.64398,-0.5723 4.46898,-4.1945 8.5,-8.0493 4.03102,-3.8549 13.10551,-12.4049 20.16553,-19 7.06002,-6.5952 14.45754,-13.3413 16.43893,-14.9913 1.9814,-1.65 6.40832,-5.7 9.8376,-9 3.42929,-3.3 8.84458,-8.475 12.03398,-11.5 3.1894,-3.025 7.8361,-7.1904 10.326,-9.2565 2.4899,-2.066 7.55458,-6.566 11.25486,-10 3.70027,-3.4339 10.4599,-9.8435 15.02141,-14.2435 4.5615,-4.4 10.4501,-9.7651 13.08577,-11.9225 2.63567,-2.1574 5.44126,-5.1778 6.23466,-6.7121 1.24193,-2.4016 1.44406,-29.5301 1.45346,-195.0775 0.0109,-192.287904 0.0109,-192.287904 -2.39419,-192.287904 -1.72141,0 -6.60904,3.9798 -17.19358,14 -8.13366,7.7 -18.19651,17.2232 -22.36189,21.1627 -4.16537,3.9395 -9.37341,8.5877 -11.57341,10.3294 -2.2,1.7417 -7.6,6.555604 -12,10.697604 -4.4,4.142 -12.05,11.2702 -17,15.8404 -4.95,4.5702 -12.62924,11.6081 -17.06497,15.6397 -4.43573,4.0316 -9.39328,8.4552 -11.01678,9.8302 -1.6235,1.375 -3.84426,3.6277 -4.93503,5.006 -1.09077,1.3783 -4.00822,4.0451 -6.48322,5.9264 -2.475,1.8813 -8.06688,6.8286 -12.42641,10.994 -4.35952,4.1655 -10.20361,9.8236 -12.98687,12.5736 -2.78325,2.75 -7.09136,6.71 -9.57359,8.7999 -2.48222,2.09 -6.67839,5.8875 -9.32481,8.4389 -2.64643,2.5514 -6.208,5.6691 -7.9146,6.9282 -1.70661,1.2591 -6.29135,5.347 -10.18832,9.0843 -3.89697,3.7373 -14.31553,13.5346 -23.15236,21.7719 -8.83682,8.2372 -20.08682,18.5731 -25,22.9684 -4.91317,4.3954 -12.96988,11.8204 -17.90379,16.5 -4.93391,4.6797 -9.88391,9.4455 -11,10.5908 -1.11609,1.1453 -5.19781,4.9703 -9.0705,8.5 -3.87268,3.5297 -9.49768,8.6246 -12.5,11.3221 -3.00231,2.6974 -11.30875,10.4246 -18.45875,17.1715 -7.15,6.7469 -14.59428,13.5398 -16.54284,15.0955 -1.94856,1.5557 -5.99856,5.1328 -9,7.9492 -3.00144,2.8164 -9.50716,8.8409 -14.45716,13.3879 -4.95,4.5469 -12.86045,11.9176 -17.57879,16.3793 -4.71833,4.4617 -12.36508,11.4871 -16.99278,15.6121 -4.6277,4.125 -12.03292,10.875 -16.45606,15 -4.42313,4.125 -13.42638,12.4922 -20.00721,18.5938 -6.58084,6.1016 -17.14016,15.7509 -23.46516,21.4428 -6.325,5.6919 -17.575,15.9471 -25,22.7895 -7.425,6.8423 -14.175,13.1731 -15,14.0684 -0.825,0.8952 -5.55,5.1911 -10.5,9.5463 -4.95,4.3553 -11.25,10.0215 -14,12.5917 -2.75,2.5701 -12.90766,12.0517 -22.57258,21.0703 -9.66491,9.0185 -21.07047,19.5472 -25.34567,23.3972 -4.27521,3.85 -8.31427,7.45 -8.97569,8 -0.66142,0.55 -4.80276,4.375 -9.20297,8.5 -4.40022,4.125 -12.0285,11.2727 -16.95174,15.8838 -4.92324,4.6111 -12.10135,11.3829 -15.95135,15.0485 -3.84999,3.6656 -10.59999,9.7921 -14.99999,13.6145 -4.4,3.8225 -13.8815,12.5757 -21.07,19.4516 -7.1885,6.8759 -17.3135,16.4152 -22.5,21.1984 -5.1865,4.7832 -14.0123,13.1082 -19.613,18.5 -5.6006,5.3918 -10.6978,11.1532 -11.3272,12.8032 -0.8431,2.2107 -1.1691,52.909 -1.2388,192.6905 -0.077,153.85215 0.1498,189.98515 1.1996,191.25005 0.7119,0.8577 1.8725,1.5595 2.5792,1.5595 0.7067,0 3.3846,-2.3625 5.951,-5.25 2.5664,-2.8875 6.3207,-6.4987 8.3427,-8.0247 2.0221,-1.5261 7.0515,-5.9544 11.1765,-9.8407 4.125,-3.8863 10.1006,-9.5251 13.2791,-12.5307 3.1786,-3.0057 8.221,-7.4537 11.2054,-9.8845 2.9844,-2.4308 7.8088,-6.7934 10.7208,-9.6946 2.9121,-2.9011 9.0862,-8.6498 13.7204,-12.7748 4.6341,-4.12505 10.4841,-9.67865 12.99995,-12.34135 2.51589,-2.6627 8.17434,-7.9975 12.57434,-11.8552 4.4,-3.8576 11.59018,-10.229 15.97817,-14.1587 4.388,-3.9296 9.11867,-8.3155 10.51262,-9.7464 1.39394,-1.4309 6.57876,-6.1094 11.52183,-10.3966 4.94306,-4.2872 11.68738,-10.4056 14.98738,-13.5965 3.3,-3.1909 9.825,-9.2355 14.5,-13.4325 4.675,-4.1971 12.67912,-11.5329 17.78693,-16.3019 5.10782,-4.769 12.20868,-11.4834 15.7797,-14.9209 3.57102,-3.4375 6.82127,-6.25 7.22279,-6.25 0.40151,0 7.47565,-6.5187 15.7203,-14.4861 8.24465,-7.9674 15.37166,-14.4924 15.8378,-14.5 0.46613,-0.01 5.41613,-4.3406 11,-9.6288 5.58386,-5.2882 13.13879,-12.3757 16.78872,-15.75 3.64993,-3.3743 10.79702,-9.9601 15.88243,-14.6351 5.08541,-4.675 12.07177,-11.2 15.52523,-14.5 3.45347,-3.3 10.91164,-10.275 16.57373,-15.5 5.66208,-5.225 14.13942,-13.1589 18.83853,-17.6309 4.69911,-4.472 9.92045,-8.8266 11.60297,-9.677 1.68253,-0.8503 3.59848,-1.2127 4.25768,-0.8053 0.92749,0.5732 1.06916,39.821 0.62646,173.5444 -0.57208,172.80365 -0.57208,172.80365 7.24232,180.44725 4.29793,4.2041 10.30139,9.7455 13.34104,12.3144 3.03964,2.5689 7.10523,5.9389 9.03463,7.4889 1.92941,1.5501 5.27811,4.3933 7.44156,6.3183 2.16345,1.925 5.21574,4.7332 6.78286,6.2405 1.56712,1.5074 3.65251,3.3074 4.6342,4 0.9817,0.6927 4.88882,4.1295 8.68251,7.6373 3.79369,3.5079 8.46955,7.5579 10.39081,9 1.92126,1.4422 4.42857,3.5222 5.57182,4.6222 1.14324,1.1 4.0713,3.7104 6.5068,5.801 2.4355,2.0906 7.12818,6.2468 10.42818,9.2361 3.3,2.9893 11.5473,10.2788 18.32733,16.199 6.78003,5.9201 15.33003,13.3406 19,16.4899 3.66997,3.1493 9.7451,8.3243 13.50029,11.5 3.7552,3.1757 8.71208,7.574 11.01529,9.774 2.30322,2.2 5.90338,5.5053 8.00036,7.3452 2.09698,1.8398 6.3651,5.4159 9.48471,7.9467 3.11961,2.5308 9.49702,7.9339 14.17202,12.007 4.675,4.073 11.63773,10.1719 15.47273,13.5532 3.83501,3.3813 9.93746,8.8479 13.56102,12.1479 3.62355,3.3 11.24602,9.825 16.93882,14.5 5.69281,4.675 12.19035,9.8967 14.43899,11.6038 2.24864,1.7071 6.15464,5.3071 8.68,8 2.52536,2.6929 6.31673,6.2462 8.42527,7.8962 2.10855,1.65 9.4132,7.95 16.23257,14 6.81937,6.05 15.628,13.5295 19.57473,16.6211 3.94673,3.0916 9.44077,8.0416 12.20899,11 2.76822,2.9584 7.11895,7.0664 9.6683,9.1289 2.54934,2.0625 5.02825,3.75 5.50867,3.75 0.48042,0 2.87969,2.0679 5.3317,4.5953 2.45202,2.5274 5.35821,4.9739 6.45821,5.4366 1.1,0.4627 2.225,0.8629 2.5,0.8894 0.275,0.026 1.17209,-0.3768 1.99352,-0.8962 z m 371.07218,-231.0603 c 1.0639,-0.5694 1.9343,-1.6525 1.9343,-2.4069 0,-0.7544 -2.2,-3.2136 -4.8888,-5.4648 -2.6888,-2.2512 -5.2072,-4.0931 -5.5963,-4.0931 -0.3891,0 -3.4767,-2.372 -6.8612,-5.2711 -3.3845,-2.8991 -8.6287,-6.9781 -11.6537,-9.0644 -3.025,-2.0863 -8.65,-6.218 -12.5,-9.1815 -3.85,-2.9635 -8.9561,-6.8721 -11.347,-8.6856 -2.3908,-1.8136 -6.2241,-4.9452 -8.5183,-6.9591 -2.2942,-2.014 -6.4131,-5.1724 -9.153,-7.0188 -2.7399,-1.8463 -6.7307,-5.0583 -8.8685,-7.1377 -2.1377,-2.0794 -5.6094,-4.6596 -7.7149,-5.7337 -2.1055,-1.0741 -6.6007,-4.4269 -9.9894,-7.4506 -3.3887,-3.0236 -6.5441,-5.4975 -7.012,-5.4975 -0.4679,0 -1.6352,-1.1971 -2.5938,-2.6603 -1.7431,-2.6602 -1.7431,-2.6602 4.7269,-8.5469 3.5585,-3.2377 8.8806,-7.4965 11.8269,-9.4642 2.9463,-1.9676 6.9535,-4.984 8.905,-6.703 1.9514,-1.7191 5.4668,-4.4756 7.8119,-6.1256 2.3451,-1.65 7.7879,-5.8517 12.095,-9.337 4.3072,-3.4853 10.3062,-8.3187 13.3312,-10.7407 3.025,-2.4221 11.1776,-8.8774 18.117,-14.3452 6.9393,-5.4677 12.9263,-10.74755 13.3044,-11.73285 0.4365,-1.1375 0.088,-2.23 -0.955,-2.9925 -1.1882,-0.8689 -7.496,-1.1179 -22.8045,-0.9005 -11.639,0.1653 -22.2869,0.7658 -23.6619,1.3344 -1.375,0.5686 -6.55,4.467 -11.5,8.66315 -4.95,4.1961 -12.2763,10.4107 -16.2807,13.8103 -4.0044,3.3996 -9.1794,7.3758 -11.5,8.836 -2.3206,1.4603 -5.3443,3.8894 -6.7193,5.3982 -1.375,1.5087 -5.65,5.168 -9.5,8.1319 -3.85,2.9638 -11.05,8.5304 -16,12.3702 -4.95,3.8398 -9.7394,6.9866 -10.643,6.993 -0.9037,0.01 -1.8809,-0.6084 -2.1717,-1.3662 -0.2908,-0.7578 -0.3,-11.4453 -0.02,-23.75 0.2852,-12.548 0.066,-25.8378 -0.499,-30.2642 -0.572,-4.48115 -1.5819,-8.25625 -2.3366,-8.73475 -0.7311,-0.4634 -7.9169,-0.8495 -15.9685,-0.858 -12.93857,-0.014 -14.91349,0.2068 -17.00002,1.8967 -2.36078,1.912 -2.36078,1.912 -2.07732,81.70825 0.25552,71.9328 0.44325,79.9728 1.90499,81.588 1.42314,1.5726 3.47995,1.7918 16.81155,1.7918 14.1743,0 15.3174,-0.1408 17.095,-2.1057 1.8078,-1.9982 1.8882,-3.81 1.5766,-35.5 -0.3283,-33.3943 -0.3283,-33.3943 2.0555,-33.3943 1.4005,0 5.042,2.1847 8.8283,5.2967 3.5445,2.9131 8.4959,6.7004 11.003,8.4162 2.5071,1.7157 8.0514,6.088 12.3206,9.7161 4.2692,3.6282 11.1483,9.1784 15.2869,12.3338 4.1386,3.1555 9.1694,7.001 11.1794,8.5457 2.0101,1.5446 6.1297,4.983 9.1547,7.6408 3.025,2.6578 9.55,7.919 14.5,11.6915 9,6.8592 9,6.8592 33,7.3941 13.2,0.2943 24.8171,0.6318 25.8157,0.75 0.9987,0.1183 2.6862,-0.2508 3.75,-0.8201 z m 39.4486,-1.9737 c 1.7877,-1.1048 3.8495,-3.4673 4.5818,-5.25 0.7322,-1.7826 2.3277,-4.7186 3.5454,-6.5243 1.2178,-1.8058 2.5223,-4.6859 2.8988,-6.4003 0.3765,-1.7143 2.0055,-4.5685 3.6199,-6.3426 2.9353,-3.2257 2.9353,-3.2257 43.8071,-3.0998 40.8719,0.1259 40.8719,0.1259 43.3745,2.4771 1.3764,1.2932 4.8447,7.0293 7.7073,12.7469 3.8312,7.6522 6.0601,10.9243 8.4459,12.3988 2.8329,1.7508 4.9793,2.0031 17.0443,2.0031 11.3256,0 14.1248,-0.2911 15.5949,-1.6214 1.6711,-1.5124 1.6835,-1.8319 0.1842,-4.75 -0.8841,-1.7208 -3.2814,-5.6036 -5.3272,-8.6286 -2.0459,-3.025 -5.4134,-8.875 -7.4833,-13 -2.0699,-4.125 -4.9703,-9.075 -6.4453,-11 -1.475,-1.925 -5.071,-8.225 -7.9911,-14 -2.9202,-5.775 -5.8412,-11.175 -6.4912,-12 -0.65,-0.825 -2.7824,-4.2 -4.7387,-7.5 -1.9563,-3.3 -5.7164,-10.05 -8.3557,-15 -2.6394,-4.95 -5.3487,-9.675 -6.0207,-10.5 -0.672,-0.825 -3.1636,-5.325 -5.5368,-10 -2.3733,-4.675 -4.8514,-9.175 -5.507,-10 -0.6556,-0.825 -2.9026,-4.7917 -4.9934,-8.8149 -2.1179,-4.0753 -5.1491,-8.2745 -6.8445,-9.4817 -2.8228,-2.01 -4.0168,-2.1434 -16.4969,-1.8433 -10.592,0.2547 -13.9309,0.6762 -15.6967,1.9817 -1.2335,0.912 -3.2595,3.81 -4.5022,6.4399 -1.2426,2.63 -2.9218,5.33 -3.7314,6 -0.8097,0.6701 -3.4035,5.3496 -5.764,10.3991 -2.3605,5.0494 -6.4852,12.6994 -9.166,17 -2.6808,4.3005 -7.2456,12.6723 -10.144,18.6039 -2.8984,5.9315 -6.2401,12.0065 -7.426,13.5 -1.186,1.4934 -3.1425,4.7403 -4.3478,7.2153 -1.2054,2.475 -2.8845,6.075 -3.7314,8 -0.8468,1.925 -2.3699,4.922 -3.3845,6.66 -1.0146,1.738 -2.7025,4.438 -3.751,6 -1.0485,1.562 -2.8142,4.5234 -3.924,6.5808 -1.1097,2.0575 -4.1267,7.7666 -6.7044,12.6868 -2.5777,4.9203 -5.6518,9.911 -6.8314,11.0905 -2.0438,2.0439 -2.063,2.2347 -0.4082,4.0632 1.5419,1.7038 3.1898,1.9187 14.7134,1.9187 11.2506,0 13.4093,-0.2673 16.2273,-2.0089 z m 32.7357,-54.6184 c -0.6875,-0.2967 -1.25,-1.3352 -1.25,-2.3078 0,-0.9726 1.9125,-4.6813 4.25,-8.2416 2.3375,-3.5602 5.0885,-8.2394 6.1134,-10.3982 1.0249,-2.1588 2.7568,-5.7251 3.8487,-7.9251 1.0919,-2.2 3.5819,-7.0571 5.5335,-10.7935 1.9515,-3.7364 4.4195,-7.2597 5.4845,-7.8297 1.4931,-0.7991 2.4047,-0.6175 3.9827,0.7935 1.1255,1.0063 2.8809,3.7629 3.901,6.1256 1.02,2.3628 2.9238,5.7378 4.2307,7.5 1.3069,1.7623 4.5625,7.7041 7.2347,13.2041 2.6722,5.5 5.7037,11.1821 6.7367,12.6269 1.033,1.4447 1.716,3.4697 1.5178,4.5 -0.2751,1.4298 -1.5405,2.0117 -5.347,2.4587 -2.7427,0.3221 -13.9867,0.6399 -24.9867,0.7061 -11,0.066 -20.5625,-0.1223 -21.25,-0.419 z m 169.4274,54.3103 c 1.7232,-2.1906 1.8166,-5.8244 1.713,-66.6468 -0.1097,-64.3298 -0.1097,-64.3298 -2.5,-66.9976 -2.3849,-2.6616 -2.4185,-2.6668 -14.5833,-2.2707 -10.8766,0.3541 -12.4499,0.6351 -14.5728,2.6025 -2.3798,2.2055 -2.3798,2.2055 -2.5187,66.9142 -0.139,64.7088 -0.139,64.7088 2.0112,66.7121 1.927,1.7952 3.5253,2.0033 15.3892,2.0033 12.6515,0 13.3197,-0.1028 15.0614,-2.317 z m 72.2839,0.1282 c 1.9751,-2.12 2.0359,-3.2756 1.936,-36.75 -0.057,-19.0087 -0.4659,-37.4434 -0.9094,-40.966 -0.4435,-3.5226 -0.5741,-7.0101 -0.2901,-7.75 0.2839,-0.7399 1.2837,-1.3452 2.2218,-1.3452 0.938,0 5.0524,3.0631 9.143,6.8069 4.0906,3.7437 13.9624,12.312 21.9374,19.0406 7.975,6.7286 16.075,13.7078 18,15.5094 1.925,1.8016 5.525,4.8194 8,6.7062 2.475,1.8868 7.1762,5.6819 10.4471,8.4337 3.2709,2.7517 7.0491,6.0157 8.396,7.2532 1.3469,1.2375 2.7526,2.25 3.1238,2.25 0.3711,0 3.3546,2.5875 6.6299,5.75 3.2753,3.1625 8.8523,8.225 12.3932,11.25 6.4381,5.5 6.4381,5.5 16.8101,5.8435 9.6001,0.3179 10.5484,0.1777 12.7426,-1.8836 2.3706,-2.2271 2.3706,-2.2271 2.1525,-67.5589 -0.2134,-63.9039 -0.2616,-65.3646 -2.2067,-66.8346 -1.486,-1.123 -4.8049,-1.5109 -13.1327,-1.5346 -10.8269,-0.031 -11.2291,0.047 -14.1211,2.7489 -2.9768,2.7808 -2.9768,2.7808 -2.9262,42.6855 0.045,35.2234 -0.1336,40.0209 -1.5205,40.8957 -1.2397,0.782 -3.5654,-0.7867 -11.0232,-7.4354 -5.1985,-4.6346 -12.9514,-11.1265 -17.2284,-14.4265 -4.2771,-3.3 -9.635,-7.6335 -11.9065,-9.63 -2.2714,-1.9964 -7.4418,-6.4964 -11.4897,-10 -4.0479,-3.5035 -8.8808,-7.3862 -10.7399,-8.6282 -1.8591,-1.242 -6.4222,-5.095 -10.1402,-8.5622 -3.7181,-3.4672 -8.3351,-7.3566 -10.2601,-8.6431 -1.925,-1.2866 -6.2,-4.9198 -9.5,-8.0739 -3.3,-3.1541 -8.25,-6.9767 -11,-8.4947 -4.388,-2.4222 -5.965,-2.7387 -12.8849,-2.586 -6.0488,0.1335 -8.5301,0.6334 -10.6556,2.1469 -2.7707,1.9729 -2.7707,1.9729 -2.4867,67.009 0.265,60.6739 0.4032,65.1677 2.0606,66.9991 1.5821,1.7482 3.1237,1.9631 14.0826,1.9631 11.3722,0 12.4608,-0.1661 14.3453,-2.1888 z m 321.759,0.1259 c 4.7121,-1.5913 7.242,-3.2614 11.0666,-7.3053 3.5761,-3.7812 5.4813,-6.8992 6.8355,-11.1871 1.7064,-5.4027 1.8776,-9.5916 1.8776,-45.9447 0,-35.2075 -0.2196,-40.9585 -1.8328,-48 -1.0081,-4.4 -3.2288,-10.3429 -4.9349,-13.2064 -2.4118,-4.048 -4.1177,-5.6371 -7.6671,-7.1423 -2.5109,-1.0648 -8.3493,-2.4344 -12.9742,-3.0436 -5.157,-0.6794 -27.0074,-1.105 -56.5,-1.1007 -35.3625,0.01 -50.483,0.3663 -57.1283,1.3644 -4.9705,0.7465 -10.4033,2.0636 -12.0728,2.927 -1.6696,0.8633 -3.6602,2.3224 -4.4237,3.2423 -0.7635,0.9199 -1.8557,2.4636 -2.4272,3.4303 -0.5714,0.9668 -1.9901,3.5063 -3.1526,5.6434 -1.1625,2.1371 -2.692,7.0085 -3.399,10.8255 -0.9087,4.9053 -1.2776,18.2442 -1.2583,45.5 0.027,38.5601 0.027,38.5601 2.5408,45.7872 1.3826,3.9748 3.7512,8.6998 5.2636,10.5 1.5125,1.8001 3.5009,3.8012 4.4189,4.447 0.9179,0.6457 4.3416,2.0931 7.6083,3.2165 5.7091,1.9632 8.1899,2.0437 63.9951,2.0759 56.0525,0.032 58.2666,-0.038 64.1645,-2.0294 z m -113.3936,-24.7127 c -0.8596,-0.5478 -1.24,-11.711 -1.4229,-41.7657 -0.1654,-27.16 0.1038,-41.6499 0.7967,-42.8881 1.0014,-1.7893 3.107,-1.8632 48.85,-1.7151 42.8809,0.1388 47.9911,0.3247 49.6265,1.8046 1.7072,1.545 1.823,4.2375 1.823,42.3724 0,32.2295 -0.2716,40.948 -1.3022,41.8033 -0.8921,0.7404 -16.4048,1.0895 -49.25,1.1085 -26.3713,0.015 -48.4758,-0.3087 -49.1211,-0.7199 z m 308.5948,24.1789 c 3.9873,-1.5738 8.2649,-4.2283 10.86,-6.7391 2.7271,-2.6386 4.6565,-5.5986 5.3145,-8.1534 0.5682,-2.2059 1.4608,-5.4115 1.9835,-7.1234 0.5228,-1.7119 0.9697,-8.537 0.9931,-15.1669 0.026,-7.2896 -0.5855,-15.0955 -1.5466,-19.7482 -0.874,-4.2316 -2.2139,-8.8815 -2.9774,-10.3331 -0.7635,-1.4516 -3.3368,-4.4985 -5.7184,-6.771 -2.4516,-2.3392 -6.9332,-5.1516 -10.3302,-6.4826 -5.9452,-2.3295 -6.4108,-2.3532 -51,-2.5944 -24.75,-0.1339 -46.0125,-0.4878 -47.25,-0.7864 -2.1772,-0.5254 -2.25,-0.9288 -2.25,-12.4672 0,-11.1885 0.1371,-12.0203 2.2225,-13.4809 1.9204,-1.3451 7.5855,-1.5567 41.6713,-1.5567 35.3041,0 39.6409,0.1738 41.2775,1.655 1.0907,0.987 1.8287,3.0314 1.8287,5.0657 0,1.8759 0.4658,4.2812 1.0352,5.345 0.7725,1.4434 2.1064,1.9343 5.2566,1.9343 2.3218,0 5.7934,-0.4747 7.7148,-1.0549 1.9214,-0.5801 4.3934,-1.2475 5.4934,-1.4831 1.1,-0.2356 3.35,-0.711 5,-1.0565 1.65,-0.3454 3.7875,-1.3228 4.75,-2.1718 1.165,-1.0277 1.75,-3.0069 1.75,-5.9208 0,-2.4075 -0.6967,-6.0447 -1.5483,-8.0828 -0.8516,-2.0381 -2.9376,-5.8706 -4.6356,-8.5167 -1.7787,-2.7719 -4.6192,-5.5859 -6.7017,-6.6391 -1.9879,-1.0053 -6.0894,-2.3605 -9.1144,-3.0115 -3.8078,-0.8195 -19.1562,-1.1564 -49.8864,-1.0952 -40.6795,0.081 -45.1438,0.2571 -53.4555,2.1085 -4.9881,1.1111 -9.7642,2.5419 -10.6136,3.1795 -0.8495,0.6376 -2.8146,2.5285 -4.367,4.2018 -1.5523,1.6734 -4.1638,5.7426 -5.8032,9.0426 -2.9118,5.8614 -2.9852,6.3816 -3.1775,22.5238 -0.1861,15.6233 -0.078,16.6748 1.9841,19.2969 1.1994,1.5253 2.4777,4.1251 2.8406,5.7774 0.363,1.6523 2.3561,4.6686 4.4293,6.703 2.1334,2.0934 6.5429,4.784 10.1594,6.1989 6.3898,2.5 6.3898,2.5 51.8057,2.7452 40.6929,0.2196 45.6067,0.4178 47.25,1.9049 1.5789,1.4289 1.8341,3.2813 1.8341,13.3137 0,8.4845 -0.3859,12.1818 -1.4189,13.595 -1.3633,1.865 -3.1871,1.9513 -46.4791,2.1986 -45.0602,0.2575 -45.0602,0.2575 -45.5441,-2 -0.2662,-1.2416 -0.7521,-4.4973 -1.0799,-7.2348 -0.3277,-2.7376 -1.1318,-5.3182 -1.7869,-5.7347 -0.6551,-0.4165 -2.7661,-0.7617 -4.6911,-0.767 -1.925,-0.01 -5.075,0.4043 -7,0.9103 -1.925,0.5061 -5.4191,1.1663 -7.7646,1.4671 -2.3456,0.3008 -5.1477,1.0196 -6.2271,1.5972 -1.0794,0.5777 -2.4228,1.9104 -2.9854,2.9616 -0.5626,1.0513 -1.0229,4.1862 -1.0229,6.9666 0,3.0967 0.9955,7.5419 2.5695,11.4736 1.4132,3.5301 3.3853,7.1567 4.3824,8.0592 0.9972,0.9024 4.6784,3.1677 8.1806,5.0341 6.3675,3.3934 6.3675,3.3934 61.789,3.4514 55.4216,0.058 55.4216,0.058 62,-2.5387 z M 1018.1723,773.20475 c 5.0849,-4.5375 10.8389,-9.9403 12.7865,-12.0063 1.9477,-2.0659 8.6167,-8.8159 14.8201,-15 6.2034,-6.184 18.5804,-18.4437 27.5045,-27.2437 8.9241,-8.8 23.1986,-22.6709 31.7211,-30.8243 8.5225,-8.1534 30.1114,-29.0784 47.9754,-46.5 17.8639,-17.4216 36.9889,-36.0362 42.5,-41.3656 5.511,-5.3295 12.0451,-11.6076 14.5201,-13.9514 2.475,-2.3438 15.7858,-15.3083 29.5796,-28.8101 13.7938,-13.5017 28.0396,-27.2486 31.6572,-30.5486 3.6177,-3.3 11.9366,-11.2039 18.4864,-17.5643 6.5499,-6.3605 16.4119,-15.6558 21.9155,-20.6564 5.5037,-5.0006 15.0365,-14.0087 21.184,-20.0181 6.1475,-6.0094 11.1773,-11.2561 11.1773,-11.6594 0,-0.4033 -0.4658,-1.6037 -1.0352,-2.6675 -1.0179,-1.9021 -4.2371,-1.9343 -193.32,-1.9343 -192.2848,0 -192.2848,0 -196.7148,3.6849 -2.4365,2.0267 -7.805,7.0592 -11.93,11.1834 -4.125,4.1243 -9.525,9.2773 -12,11.4513 -2.475,2.174 -15.01643,14.1289 -27.86985,26.5666 -12.85342,12.4376 -29.98326,29.1388 -38.06631,37.1138 -8.08305,7.975 -27.43003,26.875 -42.99329,42 -15.56326,15.125 -40.83089,39.875 -56.15028,55 -15.31938,15.125 -46.59445,45.95 -69.50014,68.5 -22.90569,22.55 -47.61265,46.8836 -54.90436,54.0746 -7.2917,7.191 -13.78542,14.0608 -14.43047,15.266 -1.02176,1.9092 -0.87738,2.3101 1.12093,3.1121 1.36723,0.5487 79.12853,0.9462 192.50728,0.9839 190.21349,0.063 190.21349,0.063 199.45879,-8.1866 z"
       id="path1" />
  </g>
</svg>
