<?xml version="1.0" encoding="UTF-8" standalone="no"?>
<!-- Created with Inkscape (http://www.inkscape.org/) -->
<!-- style="fill:#000000" -->

<svg
   version="1.1"
   id="svg1"
   width="1182.1055"
   height="616.4649"
   viewBox="0 0 1182.1055 616.4649"
   xmlns="http://www.w3.org/2000/svg"
   xmlns:svg="http://www.w3.org/2000/svg">
  <defs
     id="defs1" />
  <g
     id="g1"
     transform="translate(-36.394052,-14.175341)">
    <path
       
       d="m 433.86669,629.1313 -0.49843,-1.2989 0.2629,-35.9952 0.26289,-35.9952 h 7.5 7.5 v 37 37 l -7.26446,0.2941 -7.26446,0.29411 z m 40.15143,-0.32659 -0.62407,-1.62628 v -28.22709 -28.22708 l 1.25,-1.5163 1.25,-1.5163 5.18607,0.41738 5.18607,0.41737 23.51369,19.90779 23.5137,19.9078 h 0.55023 0.55024 v -19.89301 -19.89301 l 1.25,-0.46279 1.25,-0.46278 4.84939,0.28851 4.84938,0.28852 0.31267,0.31728 0.31266,0.31728 0.33053,29.70742 0.33053,29.70743 -1.1917,1.19169 -1.19169,1.1917 -4.95067,-0.89912 -4.95067,-0.89912 -23.30639,-20 -23.30639,-20 -0.7733,-0.32649 -0.77331,-0.32649 -0.27052,20.82649 -0.27052,20.82649 -6.12593,0.2945 -6.12594,0.2945 z m 122.34133,0.84182 -2.53461,-0.3958 -5.71375,-10.20436 -5.71375,-10.20437 -11.46972,-19.89714 -11.46973,-19.89714 0.5271,-0.85286 0.5271,-0.85286 h 5.85919 5.8592 l 1.60547,0.61608 1.60547,0.61608 3.81066,6.63392 3.81067,6.63392 8.3203,14.75 8.3203,14.75 0.59535,-0.0138 0.59535,-0.0138 9.5,-17.68047 9.5,-17.68047 2.72798,-4.3057 2.72797,-4.3057 h 6.52203 6.52202 v 1.42969 1.42968 l -9.13657,16.32032 -9.13656,16.32031 -6.94319,12.7575 -6.94319,12.7575 -1.8545,0.9925 -1.8545,0.9925 -1.81575,-0.14983 -1.81574,-0.14983 z m 52.41888,-0.54027 -0.88428,-1.26426 0.5,-29.8085 0.5,-29.8085 30.31389,0.039 30.31389,0.039 0.93611,0.57855 0.93611,0.57855 v 3.81853 3.81854 l -1.52159,1.26281 -1.52158,1.2628 -22.22842,-0.39036 -22.22841,-0.39036 v 6.5 6.5 l 14,0.5 14,0.5 v 4.5 4.5 l -13.43405,0.28031 -13.43406,0.28031 -1.35804,1.12708 -1.35805,1.12708 0.2921,6.59261 0.2921,6.59261 24.29937,0.26789 24.29937,0.26789 -0.29937,5.73211 -0.29937,5.73211 -30.61572,0.26426 -30.61572,0.26426 z m 83.03953,-0.62603 -4.0762,-1.88481 -1.23667,-2.9856 -1.23668,-2.9856 -0.092,-3.23637 -0.092,-3.23636 1.40488,-0.88943 1.40489,-0.88943 3.25,-0.18198 3.25,-0.18198 1.74018,-0.0833 1.74018,-0.0833 0.51897,3 0.51896,3 20.41869,0.27127 20.4187,0.27128 0.73883,-1.19546 0.73883,-1.19545 0.034,-4.57582 0.034,-4.57582 -0.51803,-1.75 -0.51803,-1.75 h -21.6983 -21.69821 l -3.4844,-1.8348 -3.4844,-1.83481 -1.79956,-3.41519 -1.79957,-3.4152 0.29957,-8.17741 0.29956,-8.17742 2.08994,-2.82258 2.08993,-2.82259 2.77132,-1.35788 2.77131,-1.35789 24.17737,-0.14211 24.17736,-0.14212 2.69058,1.75942 2.69057,1.75942 1.58083,3.05698 1.58082,3.05698 -0.31001,2.66551 -0.31002,2.66551 -5.44826,1.20457 -5.44827,1.20458 -0.80173,-0.4955 -0.80174,-0.4955 v -2.42193 -2.42193 l -2.25,-0.55391 -2.25,-0.55391 -17.5,0.28486 -17.5,0.28485 -0.29373,6.09658 -0.29374,6.09658 22.70634,0.71182 22.70633,0.71183 2.91618,1.50801 2.91618,1.50802 1.42122,3.40146 1.42122,3.40147 v 8.63098 8.63099 l -1.63484,3.44518 -1.63485,3.44518 -3.11515,1.70595 -3.11516,1.70595 -24.5,0.26152 -24.5,0.26152 z m 99.28382,1.23606 -0.70763,-0.70762 v -24.76595 -24.76594 l -2.1175,-0.67207 -2.1175,-0.67207 -10.1325,0.24508 -10.1325,0.24509 -1.25,-0.14041 -1.25,-0.1404 v -4.44098 -4.44098 l 1.05191,-0.65012 1.05192,-0.65012 32.69808,0.0798 32.69809,0.0798 0.80226,0.0113 0.80226,0.0113 -0.30226,5.25 -0.30226,5.25 h -13 -13 l -0.5,25.5 -0.5,25.5 -6.54237,0.29096 -6.54238,0.29096 z m 54.54237,-0.0366 -1.25,-0.50438 0.0992,-22.16667 0.0992,-22.16667 0.65075,-8.5 0.65075,-8.5 5.02047,-0.2943 5.02047,-0.2943 2.96603,3.09587 2.96603,3.09587 11.0135,14.12337 11.0135,14.12336 1.16144,0.37888 1.16143,0.37888 10.33857,-12.74713 10.33856,-12.74713 4.38684,-4.80668 4.38685,-4.80669 h 4.16315 4.16316 l 1.2,1.2 1.2,1.2 v 29.69301 29.69301 l -1.58178,0.60699 -1.58179,0.60699 h -3.83643 -3.83642 l -1.63894,-0.62892 -1.63893,-0.62891 0.20312,-19.39178 0.20312,-19.39178 -0.50653,-0.50652 -0.50652,-0.50652 -2.81701,3.77721 -2.81701,3.77722 -9.94455,12.79981 -9.94455,12.79981 -1.62789,-0.31224 -1.62789,-0.31223 -11.63414,-15.48758 -11.63413,-15.48757 -0.74126,0.25128 -0.74125,0.25127 0.18351,18.07624 0.18351,18.07623 -1.18056,1.42249 -1.18057,1.42249 -4.62755,-0.0789 -4.62756,-0.079 z m 99.95,-0.53772 -1.2,-1.2 v -29.24098 -29.24098 l 0.91608,-0.56617 0.91608,-0.56617 30.83399,-0.077 30.8339,-0.077 v 5.33417 5.33417 l -23.0106,0.043 -23.0107,0.043 -1.2393,0.76597 -1.23944,0.76597 v 4.74098 4.74098 l 1.20004,1.2 1.2,1.2 h 13.3548 13.3548 l -0.3048,4.75 -0.3048,4.75 -12,0.24533 -12,0.24534 -2.2932,0.53456 -2.29324,0.53456 0.2932,7.22011 0.2932,7.2201 24.50004,0.5 24.5,0.5 0.3237,3.38838 0.3237,3.38837 -0.5928,2.36163 -0.5927,2.36162 h -30.781 -30.78094 z m 77.80005,-29.69301 v -30.89301 l 1.3908,-0.5337 1.3908,-0.5337 4.2653,0.49001 4.2653,0.49002 7.0939,5.82157 7.0939,5.82157 15.9504,13.61512 15.9504,13.61513 h 0.7996 0.7996 v -19.39301 -19.39301 l 1.25,-0.4417 1.25,-0.44171 5.5,0.58472 5.5,0.58471 0.2804,28.5 0.2803,28.5 -0.5494,2.25 -0.5494,2.25 h -3.4159 -3.4158 l -2.3151,-0.93638 -2.3151,-0.93638 -23.2863,-20.05094 -23.2862,-20.05095 -0.5729,1.49307 -0.573,1.49307 0.4586,18.24426 0.4586,18.24425 -0.4327,1.25 -0.4328,1.25 h -6.4166 -6.4167 z m 112.6667,30.22635 -0.6667,-0.66667 v -24.80431 -24.80431 l -13.25,-0.27902 -13.25,-0.27903 v -5 -5 l 34.8027,-0.26302 34.8027,-0.26301 -0.3027,5.26301 -0.3027,5.26302 -12,0.15764 -12,0.15765 -1.25,0.0924 -1.25,0.0924 v 23.91822 23.91821 l -0.607,1.58179 -0.607,1.58178 h -6.7263 -6.7264 z m -839.68823,-22.4976 -10.47852,-9.1643 -25.43829,-22.0857 -25.43829,-22.08571 -15.06171,-12.93683 -15.06171,-12.93684 -24.25,-21.35883 -24.25,-21.35883 v -78.52766 -78.52766 l -1.49041,0.32333 -1.49041,0.32332 -32.70178,30 -32.70177,30 -14.12184,13 -14.121831,13 -30.267312,28 -30.267312,28 -1.418667,0.32333 -1.418666,0.32332 v -86.45702 -86.45702 l 7.25,-6.96026 7.25,-6.96025 20.5,-18.79831 20.499997,-18.79831 17.500001,-16.14527 17.5,-16.14527 49.46467,-45.46247 49.46466,-45.46247 35.56022,-32.499992 35.56023,-32.5 23.7777,-22 23.77769,-22 0.94742,-0.333334 0.94741,-0.333333 v 86.472549 86.47254 l -1.75,2.00469 -1.75,2.00468 -21.02344,19.3561 -21.02345,19.3561 -38.94621,36 -38.94621,36 -7.6872,7 -7.6872,7 -0.0931,1.19724 -0.0931,1.19724 17.25,15.34475 17.25,15.34475 15.05248,12.95801 15.05247,12.95801 12.44753,10.99307 12.44752,10.99307 26.25,23.29656 26.25,23.29657 v 86.46037 86.46036 h -1.27148 -1.27149 z M 433.39405,475.342 v -37 h 8 8 v 14.5 14.5 h 1.00883 1.00882 l 18.18729,-14.5 18.18728,-14.5 h 10.92634 10.92633 l -1.15468,1.39131 -1.15469,1.39131 -19.46776,15.16625 -19.46776,15.16626 0.0236,1.19243 0.0236,1.19244 7.13997,5.5 7.13997,5.5 7.74111,6 7.7411,6 8.56324,6.5 8.56324,6.5 0.0321,1.25 0.0321,1.25 h -11.78436 -11.78435 l -19.96565,-15.95355 -19.96564,-15.95354 -1.25,-0.0465 -1.25,-0.0464 v 16 16 h -8 -8 z m 86,36.3997 v -0.60031 l 5.39431,-9.64969 5.39431,-9.6497 10.19402,-19 10.19402,-19 1.56666,-1.75 1.56666,-1.75 h 6.27692 6.27691 l 1.91027,2.75 1.91026,2.75 12.82545,23 12.82545,23 2.33238,3.73013 2.33238,3.73013 v 1.56368 1.56368 l -7.23084,-0.29381 -7.23085,-0.29381 -3.45875,-6.2705 -3.45874,-6.27051 -19.4715,0.27051 -19.4715,0.2705 -3.42871,6.25 -3.42871,6.25 h -6.9102 -6.9102 z m 52.83334,-25.1778 -0.33334,-0.77811 -5.80443,-10.72189 -5.80442,-10.7219 h -0.86787 -0.86786 l -5.57771,10.39853 -5.57771,10.39853 v 1.10147 1.10147 h 12.58334 12.58333 z m 38.40221,-4.9719 0.26445,-30.75 h 6.5 6.5 l 0.26445,30.75 0.26446,30.75 h -7.02891 -7.0289 z m 32.99993,0.046 0.26452,-30.79602 4.59325,-0.29839 4.59324,-0.29839 24.13147,20.04839 24.13146,20.04839 h 0.50415 0.50415 l 0.27114,-19.75 0.27114,-19.75 h 6 6 v 30.5 30.5 l -4.6408,0.30033 -4.6408,0.30034 -16.3592,-13.93528 -16.3592,-13.93528 -7.72911,-6.6717 -7.72912,-6.6717 -0.27088,20.30665 -0.27089,20.30664 -6.76452,0.29602 -6.76451,0.29602 z m 99.76504,29.58053 -2.49949,-0.99668 -2.2091,-2.07534 -2.2091,-2.07534 -1.1589,-5.1785 -1.1589,-5.1785 0.38029,-17.43757 0.38028,-17.43756 2.02122,-3.49853 2.02122,-3.49853 3.46598,-1.74844 3.46598,-1.74845 26.5,0.0549 26.5,0.0549 3.5,1.19355 3.5,1.19356 2.25,4.46189 2.25,4.46189 -0.022,19.53811 -0.022,19.53811 -1.85118,4.07586 -1.85119,4.07587 -3.52798,1.67413 -3.52799,1.67414 -26.84887,-0.0634 -26.84887,-0.0634 z m 51.49948,-29.87655 v -19.5 h -22.5 -22.5 l -0.27271,18.92695 -0.27272,18.92694 1.27272,0.81865 1.27271,0.81866 21.5,-0.2456 21.5,-0.2456 z m 37.81382,29.04978 -3.18617,-1.94276 -1.06383,-1.98777 -1.06382,-1.98776 v -4.00673 -4.00672 l 0.86463,-0.53437 0.86463,-0.53438 5.63537,-0.66232 5.63537,-0.66233 v 2.51524 2.51523 l 1.37843,1.14399 1.37842,1.14399 19.87158,-0.27154 19.87157,-0.27155 v -7 -7 l -22.5,-0.5 -22.5,-0.5 -2.17458,-1.44345 -2.17458,-1.44344 -2.07542,-3.69271 -2.07542,-3.69271 v -7.21271 -7.21272 l 1.64948,-3.47602 1.64948,-3.47602 2.55573,-1.67511 2.55574,-1.67511 h 25.71355 25.71356 l 2.55221,2.39705 2.55221,2.39705 1.12018,3.39419 1.12019,3.3942 -0.53589,1.39649 -0.53588,1.39649 -3.80528,1.05669 -3.80528,1.05669 -2.25,0.006 -2.25,0.006 v -2.46481 -2.46482 l -1.75,-0.87479 -1.75,-0.87479 -18,0.5896 -18,0.58961 v 6 6 l 21.5,0.5 21.5,0.5 2.91007,1.5 2.91006,1.5 2.08994,2.82333 2.08993,2.82333 v 10.22065 10.22065 l -1.82778,2.78955 -1.82778,2.78954 -3.3901,1.41648 -3.3901,1.41647 -25.28212,-0.004 -25.28212,-0.004 z M 269.39405,341.44093 v -0.90108 l 48.25,-47.39048 48.25,-47.39048 26.14542,-25.20845 26.14541,-25.20844 h 87.10459 87.10458 l -0.11936,1.25 -0.11936,1.25 -9.63064,9.00015 -9.63064,9.00014 -41.97357,40.49986 -41.97357,40.49985 -23.38368,22.75 -23.38368,22.75 H 355.7868 269.39405 Z"
       id="path1" />
  </g>
</svg>
