<?xml version="1.0" encoding="UTF-8" standalone="no"?>
<!-- Created with Inkscape (http://www.inkscape.org/) -->
<!-- style="fill:#000000" -->
<svg
   version="1.1"
   id="svg1"
   width="1280"
   height="669"
   viewBox="0 0 1280 669"
   xmlns="http://www.w3.org/2000/svg"
   xmlns:svg="http://www.w3.org/2000/svg">
  <defs
     id="defs1" />
  <g
     id="g1">
    <path
       
       d="m 464.23069,642.51308 -0.49844,-1.2989 0.2629,-35.9952 0.2629,-35.9952 h 7.5 7.5 v 37 37 l -7.26447,0.2941 -7.26446,0.2941 z m 40.15142,-0.32659 -0.62406,-1.62629 v -28.22708 -28.22708 l 1.25,-1.5163 1.25,-1.5163 5.18607,0.41737 5.18607,0.41737 23.51369,19.9078 23.51369,19.9078 h 0.55024 0.55024 v -19.89301 -19.89301 l 1.25,-0.46279 1.25,-0.46279 4.84938,0.28852 4.84939,0.28852 0.31266,0.31728 0.31266,0.31728 0.33053,29.70742 0.33053,29.70742 -1.19169,1.1917 -1.1917,1.19169 -4.95067,-0.89912 -4.95067,-0.89911 -23.30639,-20 -23.30639,-20 -0.7733,-0.3265 -0.7733,-0.32649 -0.27052,20.82649 -0.27052,20.8265 -6.12594,0.29449 -6.12594,0.2945 z m 122.34133,0.84182 -2.5346,-0.39581 -5.71375,-10.20436 -5.71375,-10.20436 -11.46973,-19.89714 -11.46972,-19.89714 0.52709,-0.85286 0.5271,-0.85286 h 5.85919 5.8592 l 1.60547,0.61607 1.60547,0.61608 3.81067,6.63392 3.81066,6.63393 8.3203,14.75 8.3203,14.75 0.59535,-0.0138 0.59536,-0.0138 9.5,-17.68047 9.5,-17.68046 2.72797,-4.3057 2.72798,-4.3057 h 6.52202 6.52203 v 1.42968 1.42969 l -9.13657,16.32031 -9.13657,16.32032 -6.94319,12.7575 -6.94318,12.7575 -1.85451,0.9925 -1.8545,0.9925 -1.81574,-0.14983 -1.81574,-0.14984 z m 52.41888,-0.54027 -0.88427,-1.26426 0.5,-29.8085 0.5,-29.8085 30.31389,0.039 30.31389,0.039 0.93611,0.57854 0.93611,0.57855 v 3.81854 3.81854 l -1.52159,1.2628 -1.52159,1.26281 -22.22841,-0.39036 -22.22841,-0.39036 v 6.5 6.5 l 14,0.5 14,0.5 v 4.5 4.5 l -13.43406,0.2803 -13.43405,0.28031 -1.35805,1.12708 -1.35805,1.12708 0.2921,6.59261 0.29211,6.59262 24.29937,0.26789 24.29937,0.26789 -0.29937,5.73211 -0.29937,5.73211 -30.61573,0.26426 -30.61572,0.26425 z m 83.03953,-0.62604 -4.0762,-1.88481 -1.23667,-2.9856 -1.23668,-2.98559 -0.092,-3.23637 -0.092,-3.23637 1.40489,-0.88943 1.40489,-0.88943 3.25,-0.18198 3.25,-0.18198 1.74017,-0.0833 1.74018,-0.0833 0.51897,3 0.51896,3 20.4187,0.27127 20.41869,0.27127 0.73883,-1.19545 0.73883,-1.19545 0.034,-4.57582 0.034,-4.57582 -0.51803,-1.75 -0.51803,-1.75 h -21.69821 -21.69822 l -3.4844,-1.83481 -3.48439,-1.8348 -1.79957,-3.4152 -1.79956,-3.41519 0.29956,-8.17742 0.29957,-8.17741 2.08993,-2.82259 2.08993,-2.82258 2.77132,-1.35789 2.77131,-1.35788 24.17737,-0.14212 24.17737,-0.14211 2.69057,1.75942 2.69058,1.75941 1.58082,3.05698 1.58083,3.05698 -0.31002,2.66551 -0.31001,2.66551 -5.44827,1.20458 -5.44827,1.20457 -0.80173,-0.4955 -0.80173,-0.4955 v -2.42193 -2.42193 l -2.25,-0.5539 -2.25,-0.55391 -17.5,0.28485 -17.5,0.28486 -0.29374,6.09657 -0.29373,6.09658 22.70633,0.71183 22.70633,0.71182 2.91618,1.50802 2.91618,1.50801 1.42122,3.40147 1.42123,3.40146 v 8.63099 8.63099 l -1.63485,3.44518 -1.63484,3.44518 -3.11516,1.70595 -3.11515,1.70595 -24.5,0.26152 -24.5,0.26152 z m 99.28382,1.23607 -0.70762,-0.70763 V 617.6245 592.85855 l -2.1175,-0.67206 -2.1175,-0.67207 -10.1325,0.24508 -10.1325,0.24508 -1.25,-0.1404 -1.25,-0.1404 v -4.44099 -4.44098 l 1.05191,-0.65012 1.05191,-0.65011 32.69809,0.0798 32.69809,0.0798 0.80225,0.0113 0.80226,0.0113 -0.30226,5.25 -0.30225,5.25 h -13 -13 l -0.5,25.5 -0.5,25.5 -6.54238,0.29095 -6.54238,0.29096 z m 54.54238,-0.0366 -1.25,-0.50439 0.0992,-22.16667 0.0992,-22.16666 0.65075,-8.5 0.65075,-8.5 5.02046,-0.2943 5.02047,-0.2943 2.96603,3.09587 2.96603,3.09586 11.0135,14.12337 11.01351,14.12337 1.16143,0.37887 1.16143,0.37888 10.33857,-12.74712 10.33857,-12.74713 4.38684,-4.80669 4.38684,-4.80668 h 4.16316 4.16316 l 1.2,1.2 1.2,1.2 v 29.69301 29.69301 l -1.58179,0.60699 -1.58179,0.60699 h -3.83642 -3.83643 l -1.63893,-0.62892 -1.63894,-0.62892 0.20312,-19.39178 0.20312,-19.39177 -0.50652,-0.50653 -0.50653,-0.50652 -2.81701,3.77722 -2.81701,3.77722 -9.94455,12.79981 -9.94455,12.7998 -1.62789,-0.31223 -1.62788,-0.31224 -11.63414,-15.48757 -11.63414,-15.48757 -0.74125,0.25127 -0.74126,0.25127 0.18351,18.07624 0.18351,18.07624 -1.18056,1.42249 -1.18056,1.42249 -4.62756,-0.079 -4.62755,-0.0789 z m 99.94995,-0.53772 -1.2,-1.2 v -29.24099 -29.24098 l 0.9161,-0.56617 0.9161,-0.56617 30.8339,-0.077 30.8339,-0.077 v 5.33418 5.33417 l -23.0106,0.043 -23.0106,0.043 -1.2394,0.76597 -1.2394,0.76596 v 4.74098 4.74099 l 1.2,1.2 1.2,1.2 h 13.3548 13.3548 l -0.3048,4.75 -0.3048,4.75 -12,0.24533 -12,0.24533 -2.2932,0.53457 -2.2932,0.53456 0.2932,7.2201 0.2932,7.22011 24.5,0.5 24.5,0.5 0.3237,3.38837 0.3237,3.38837 -0.5927,2.36163 -0.5928,2.36163 h -30.7809 -30.781 z m 77.8,-29.69301 v -30.89301 l 1.3909,-0.53371 1.3908,-0.5337 4.2652,0.49002 4.2653,0.49001 7.0939,5.82157 7.0939,5.82157 15.9504,13.61513 15.9504,13.61513 h 0.7996 0.7996 v -19.39301 -19.39301 l 1.25,-0.44171 1.25,-0.4417 5.5,0.58471 5.5,0.58472 0.2804,28.5 0.2804,28.5 -0.5494,2.25 -0.5495,2.25 h -3.4158 -3.4159 l -2.3151,-0.93638 -2.3151,-0.93638 -23.2862,-20.05095 -23.2863,-20.05094 -0.5729,1.49307 -0.5729,1.49307 0.4586,18.24425 0.4586,18.24426 -0.4328,1.25 -0.4327,1.25 h -6.4167 -6.4167 z m 112.6667,30.22634 -0.6667,-0.66667 v -24.8043 -24.80431 l -13.25,-0.27903 -13.25,-0.27902 v -5 -5 l 34.8028,-0.26302 34.8027,-0.26302 -0.3027,5.26302 -0.3028,5.26302 -12,0.15764 -12,0.15764 -1.25,0.0924 -1.25,0.0924 v 23.91821 23.91821 l -0.6069,1.58179 -0.607,1.58179 h -6.7264 -6.7263 z m -839.68814,-22.49763 -10.47851,-9.16429 -25.4383,-22.08571 -25.43829,-22.0857 -15.06171,-12.93684 -15.0617,-12.93683 -24.25,-21.35883 -24.25,-21.35883 0,-78.52766 v -78.52766 l -1.49042,0.32332 -1.49041,0.32333 -32.70178,30 -32.70177,30 -14.12183,13 -14.12184,13 -30.267309,28 -30.267313,28 -1.418666,0.32332 -1.418667,0.32333 V 398.4134 311.95638 l 7.25,-6.96025 7.25,-6.96025 20.500005,-18.79831 20.5,-18.79832 17.5,-16.14527 17.5,-16.14527 49.46466,-45.46247 49.46466,-45.46246 35.56023,-32.5 35.56022,-32.500002 23.7777,-22 23.77769,-22 0.94742,-0.333334 0.94742,-0.333333 0,86.472549 v 86.47255 l -1.75,2.00468 -1.75,2.00468 -21.02345,19.3561 -21.02345,19.35611 -38.94621,36 -38.94621,36 -7.6872,7 -7.6872,7 -0.0931,1.19724 -0.0931,1.19723 17.25,15.34476 17.25,15.34475 15.05247,12.95801 15.05247,12.95801 12.44753,10.99307 12.44753,10.99307 26.25,23.29656 26.25,23.29656 v 86.46037 86.46037 h -1.27149 -1.27148 z m 97.02149,-131.8357 v -37 h 8 8 v 14.5 14.5 h 1.00882 1.00883 l 18.18728,-14.5 18.18729,-14.5 h 10.92633 10.92633 l -1.15468,1.39131 -1.15469,1.39131 -19.46776,15.16625 -19.46775,15.16625 0.0235,1.19244 0.0236,1.19244 7.13997,5.5 7.13998,5.5 7.7411,6 7.7411,6 8.56324,6.5 8.56325,6.5 0.0321,1.25 0.0321,1.25 h -11.78436 -11.78436 l -19.96564,-15.95355 -19.96564,-15.95355 -1.25,-0.0464 -1.25,-0.0465 v 16 16 h -8 -8 z m 86,36.39969 v -0.6003 l 5.3943,-9.6497 5.39431,-9.64969 10.19402,-19 10.19402,-19 1.56666,-1.75 1.56666,-1.75 h 6.27692 6.27692 l 1.91026,2.75 1.91026,2.75 12.82545,23 12.82545,23 2.33238,3.73013 2.33239,3.73012 v 1.56369 1.56368 l -7.23085,-0.29381 -7.23085,-0.29381 -3.45874,-6.27051 -3.45875,-6.27051 -19.4715,0.27051 -19.4715,0.27051 -3.42871,6.25 -3.42871,6.25 h -6.9102 -6.91019 z m 52.83333,-25.1778 -0.33333,-0.7781 -5.80443,-10.7219 -5.80443,-10.72189 h -0.86787 -0.86786 l -5.57771,10.39853 -5.5777,10.39853 v 1.10147 1.10147 h 12.58333 12.58333 z m 38.40221,-4.97189 0.26446,-30.75 h 6.5 6.5 l 0.26445,30.75 0.26445,30.75 h -7.0289 -7.02891 z m 32.99994,0.046 0.26452,-30.79602 4.59324,-0.29839 4.59324,-0.29839 24.13147,20.04839 24.13147,20.04839 h 0.50415 0.50415 l 0.27114,-19.75 0.27114,-19.75 h 6 6 v 30.5 30.5 l -4.64081,0.30033 -4.6408,0.30033 -16.3592,-13.93528 -16.35919,-13.93528 -7.72912,-6.6717 -7.72911,-6.67169 -0.27089,20.30664 -0.27088,20.30665 -6.76452,0.29602 -6.76452,0.29602 z m 99.76503,29.58052 -2.49949,-0.99668 -2.2091,-2.07534 -2.2091,-2.07534 -1.1589,-5.1785 -1.15889,-5.1785 0.38028,-17.43756 0.38029,-17.43757 2.02121,-3.49852 2.02122,-3.49853 3.46598,-1.74845 3.46599,-1.74844 26.5,0.0549 26.5,0.0549 3.5,1.19356 3.5,1.19356 2.25,4.46189 2.25,4.46189 -0.022,19.53811 -0.022,19.53811 -1.85118,4.07586 -1.85118,4.07586 -3.52799,1.67414 -3.52798,1.67414 -26.84887,-0.0634 -26.84887,-0.0634 z m 51.49949,-29.87654 v -19.5 h -22.5 -22.5 l -0.27272,18.92694 -0.27272,18.92695 1.27272,0.81865 1.27272,0.81865 21.5,-0.24559 21.5,-0.2456 z m 37.81382,29.04977 -3.18618,-1.94275 -1.06382,-1.98777 -1.06382,-1.98777 v -4.00672 -4.00673 l 0.86463,-0.53437 0.86463,-0.53437 5.63537,-0.66233 5.63537,-0.66233 v 2.51524 2.51524 l 1.37842,1.14399 1.37842,1.14399 19.87158,-0.27155 19.87158,-0.27154 v -7 -7 l -22.5,-0.5 -22.5,-0.5 -2.17459,-1.44345 -2.17458,-1.44345 -2.07542,-3.6927 -2.07541,-3.69271 v -7.21272 -7.21271 l 1.64947,-3.47602 1.64948,-3.47602 2.55574,-1.67511 2.55573,-1.67511 h 25.71355 25.71356 l 2.55221,2.39705 2.55221,2.39705 1.12019,3.39419 1.12018,3.39419 -0.53588,1.39649 -0.53589,1.39649 -3.80528,1.05669 -3.80527,1.05669 -2.25,0.006 -2.25,0.006 v -2.46482 -2.46481 l -1.75,-0.8748 -1.75,-0.87479 -18,0.58961 -18,0.58961 v 6 6 l 21.5,0.5 21.5,0.5 2.91006,1.5 2.91007,1.5 2.08993,2.82333 2.08994,2.82333 v 10.22065 10.22065 l -1.82779,2.78954 -1.82778,2.78955 -3.3901,1.41647 -3.3901,1.41648 -25.28212,-0.004 -25.28211,-0.004 z M 299.75805,354.8227 v -0.90107 l 48.25,-47.39049 48.25,-47.39048 26.14541,-25.20844 26.14542,-25.20844 87.10458,0 h 87.10459 l -0.11937,1.25 -0.11936,1.25 -9.63064,9.00014 -9.63063,9.00015 -41.97358,40.49985 -41.97357,40.49986 -23.38368,22.75 -23.38368,22.75 h -86.39275 -86.39274 z"
       id="path1" />
  </g>
</svg>
